<?xml version="1.0" encoding="UTF-8" standalone="no"?>
<svg
   xmlns:dc="http://purl.org/dc/elements/1.1/"
   xmlns:cc="http://creativecommons.org/ns#"
   xmlns:rdf="http://www.w3.org/1999/02/22-rdf-syntax-ns#"
   xmlns:svg="http://www.w3.org/2000/svg"
   xmlns="http://www.w3.org/2000/svg"
   viewBox="0 0 516.14935 179.508"
   height="179.508"
   width="516.14935"
   xml:space="preserve"
   id="svg2"
   version="1.1"><metadata
     id="metadata8"><rdf:RDF><cc:Work
         rdf:about=""><dc:format>image/svg+xml</dc:format><dc:type
           rdf:resource="http://purl.org/dc/dcmitype/StillImage" /></cc:Work></rdf:RDF></metadata><defs
     id="defs6"><clipPath
       id="clipPath18"
       clipPathUnits="userSpaceOnUse"><path
         id="path16"
         d="M 0,134.631 H 387.112 V 0 H 0 Z" /></clipPath></defs><g
     transform="matrix(1.3333333,0,0,-1.3333333,0,179.508)"
     id="g10"><g
       id="g12"><g
         clip-path="url(#clipPath18)"
         id="g14"><g
           transform="translate(11.1182,84.56)"
           id="g20"><path
             id="path22"
             style="fill:#23396e;fill-opacity:1;fill-rule:nonzero;stroke:none"
             d="m 0,0 h 2.345 c 5.975,0 11.118,0.756 11.118,8.167 0,7.414 -6.052,7.717 -11.648,7.717 H 0 Z m 0,24.354 h 1.362 c 5.446,0 8.092,1.589 8.092,7.489 0,5.824 -3.327,7.336 -8.017,7.336 H 0 Z m -11.118,23.75 H 2.723 c 10.588,0 17.093,-4.16 17.093,-15.505 0,-4.085 -1.437,-8.773 -4.991,-11.043 6.731,-1.21 9.757,-8.017 9.757,-14.295 0,-11.195 -7.867,-16.186 -18.229,-16.186 h -17.471 z" /></g><g
           transform="translate(51.8882,112.7711)"
           id="g24"><path
             id="path26"
             style="fill:#23396e;fill-opacity:1;fill-rule:nonzero;stroke:none"
             d="m 0,0 v -20.119 c 0,-4.235 0.681,-9.303 6.05,-9.303 5.371,0 6.052,5.068 6.052,9.303 V 0 h 10.59 v -21.858 c 0,-10.816 -5.599,-16.49 -16.642,-16.49 -11.043,0 -16.64,5.674 -16.64,16.49 V 0 Z" /></g><g
           transform="translate(101.0532,103.998)"
           id="g28"><path
             id="path30"
             style="fill:#23396e;fill-opacity:1;fill-rule:nonzero;stroke:none"
             d="m 0,0 c -1.512,1.437 -3.479,2.571 -5.597,2.571 -1.739,0 -3.479,-1.36 -3.479,-3.177 0,-2.723 3.857,-3.479 7.639,-5.143 3.857,-1.662 7.639,-4.235 7.639,-10.663 0,-8.245 -6.655,-13.163 -14.447,-13.163 -4.991,0 -9.831,2.27 -13.085,6.203 l 4.841,6.279 c 2.042,-2.27 4.765,-4.312 7.866,-4.312 2.346,0 4.235,1.589 4.235,4.009 0,3.252 -3.704,4.008 -7.411,5.597 -3.707,1.587 -7.413,3.782 -7.413,9.757 0,6.958 4.84,12.026 11.801,12.026 3.932,0 8.923,-1.211 11.949,-3.857 z" /></g><path
           id="path32"
           style="fill:#23396e;fill-opacity:1;fill-rule:nonzero;stroke:none"
           d="m 124.123,75.635 h -10.59 v 37.136 h 10.59 z m 0.983,52.717 c 0,-3.479 -2.798,-6.278 -6.277,-6.278 -3.479,0 -6.278,2.799 -6.278,6.278 0,3.404 2.799,6.279 6.278,6.279 3.479,0 6.277,-2.875 6.277,-6.279" /><g
           transform="translate(142.7296,109.3691)"
           id="g34"><path
             id="path36"
             style="fill:#23396e;fill-opacity:1;fill-rule:nonzero;stroke:none"
             d="m 0,0 h 0.15 c 2.193,3.327 5.9,4.613 9.682,4.613 9.984,0 12.858,-7.033 12.858,-15.656 V -33.735 H 12.102 v 19.666 c 0,4.463 0.225,10.21 -5.749,10.21 C 0.075,-3.859 0,-10.893 0,-15.355 v -18.38 H -10.59 V 3.402 l 10.59,0 z" /></g><g
           transform="translate(195.9774,99.0821)"
           id="g38"><path
             id="path40"
             style="fill:#23396e;fill-opacity:1;fill-rule:nonzero;stroke:none"
             d="m 0,0 c -0.528,3.782 -2.949,7.487 -7.033,7.487 -4.236,0 -6.581,-3.63 -7.109,-7.487 z m -14.445,-6.58 c 0,-4.691 1.815,-9.984 7.336,-9.984 3.479,0 5.672,2.117 7.109,5.068 l 9.759,-1.589 c -2.573,-7.412 -9.078,-11.574 -16.868,-11.574 -11.496,0 -18.531,8.17 -18.531,19.44 0,11.269 5.976,20.119 18.001,20.119 C 4.54,14.9 9.984,5.899 9.984,-5.296 V -6.58 Z" /></g><g
           transform="translate(229.9395,103.998)"
           id="g42"><path
             id="path44"
             style="fill:#23396e;fill-opacity:1;fill-rule:nonzero;stroke:none"
             d="m 0,0 c -1.512,1.437 -3.479,2.571 -5.597,2.571 -1.739,0 -3.479,-1.36 -3.479,-3.177 0,-2.723 3.857,-3.479 7.639,-5.143 3.857,-1.662 7.639,-4.235 7.639,-10.663 0,-8.245 -6.655,-13.163 -14.447,-13.163 -4.991,0 -9.831,2.27 -13.085,6.203 l 4.841,6.279 c 2.042,-2.27 4.765,-4.312 7.866,-4.312 2.346,0 4.236,1.589 4.236,4.009 0,3.252 -3.705,4.008 -7.412,5.597 -3.707,1.587 -7.413,3.782 -7.413,9.757 0,6.958 4.84,12.026 11.801,12.026 3.932,0 8.923,-1.211 11.949,-3.857 z" /></g><g
           transform="translate(260.9509,103.998)"
           id="g46"><path
             id="path48"
             style="fill:#23396e;fill-opacity:1;fill-rule:nonzero;stroke:none"
             d="m 0,0 c -1.512,1.437 -3.479,2.571 -5.597,2.571 -1.739,0 -3.479,-1.36 -3.479,-3.177 0,-2.723 3.857,-3.479 7.639,-5.143 3.857,-1.662 7.639,-4.235 7.639,-10.663 0,-8.245 -6.655,-13.163 -14.447,-13.163 -4.991,0 -9.831,2.27 -13.085,6.203 l 4.841,6.279 c 2.042,-2.27 4.765,-4.312 7.866,-4.312 2.346,0 4.235,1.589 4.235,4.009 0,3.252 -3.704,4.008 -7.411,5.597 -3.707,1.587 -7.413,3.782 -7.413,9.757 0,6.958 4.84,12.026 11.801,12.026 3.932,0 8.923,-1.211 11.949,-3.857 z" /></g><g
           transform="translate(11.1182,31.7674)"
           id="g50"><path
             id="path52"
             style="fill:#75d1cf;fill-opacity:1;fill-rule:nonzero;stroke:none"
             d="m 0,0 h 2.27 c 6.58,0 10.135,1.439 10.135,8.85 0,7.336 -4.236,8.395 -10.438,8.395 L 0,17.245 Z M 0,-30.556 H -11.118 V 26.473 H 4.01 c 11.949,0 19.74,-4.765 19.74,-17.698 0,-12.102 -6.58,-18.001 -18.229,-18.001 H 0 Z" /></g><g
           transform="translate(65.3495,19.818)"
           id="g54"><path
             id="path56"
             style="fill:#75d1cf;fill-opacity:1;fill-rule:nonzero;stroke:none"
             d="m 0,0 c 0,4.991 -3.404,10.362 -8.848,10.362 -5.447,0 -8.775,-5.371 -8.775,-10.362 0,-4.993 3.328,-10.437 8.775,-10.437 C -3.404,-10.437 0,-4.993 0,0 M 9.379,-18.607 H -1.059 v 3.404 h -0.15 c -2.27,-2.951 -6.202,-4.615 -10.06,-4.615 -10.892,0 -17.094,9.909 -17.094,19.968 0,9.834 6.277,19.591 16.942,19.591 3.857,0 7.791,-1.665 10.362,-4.69 V 18.53 H 9.379 Z" /></g><g
           transform="translate(108.0095,19.818)"
           id="g58"><path
             id="path60"
             style="fill:#75d1cf;fill-opacity:1;fill-rule:nonzero;stroke:none"
             d="m 0,0 c 0,4.991 -3.329,10.362 -8.773,10.362 -5.446,0 -8.775,-5.371 -8.775,-10.362 0,-4.993 3.329,-10.437 8.775,-10.437 C -3.329,-10.437 0,-4.993 0,0 m -1.059,-15.128 h -0.15 c -2.195,-3.026 -6.127,-4.69 -9.984,-4.69 -10.893,0 -17.095,9.909 -17.095,19.968 0,9.834 6.277,19.591 16.942,19.591 3.857,0 7.792,-1.665 10.137,-4.613 h 0.15 v 30.406 h 10.59 v -64.141 h -10.59 z" /></g><g
           transform="translate(148.0967,24.6587)"
           id="g62"><path
             id="path64"
             style="fill:#75d1cf;fill-opacity:1;fill-rule:nonzero;stroke:none"
             d="m 0,0 c -0.528,3.782 -2.949,7.487 -7.033,7.487 -4.236,0 -6.581,-3.63 -7.109,-7.487 z m -14.445,-6.58 c 0,-4.691 1.815,-9.984 7.336,-9.984 3.479,0 5.672,2.117 7.109,5.068 l 9.759,-1.589 c -2.573,-7.412 -9.078,-11.574 -16.868,-11.574 -11.496,0 -18.531,8.17 -18.531,19.44 0,11.269 5.976,20.119 18.001,20.119 C 4.54,14.9 9.984,5.899 9.984,-5.296 V -6.58 Z" /></g><path
           id="path66"
           style="fill:#75d1cf;fill-opacity:1;fill-rule:nonzero;stroke:none"
           d="m 173.589,1.211 h -10.59 v 64.14 h 10.59 z" /><g
           transform="translate(221.7681,1.2112)"
           id="g68"><path
             id="path70"
             style="fill:#23396e;fill-opacity:1;fill-rule:nonzero;stroke:none"
             d="M 0,0 H -11.118 V 47.348 H -22.614 V 57.03 H 11.498 V 47.348 H 0 Z" /></g><g
           transform="translate(237.6656,19.7428)"
           id="g72"><path
             id="path74"
             style="fill:#23396e;fill-opacity:1;fill-rule:nonzero;stroke:none"
             d="m 0,0 c 0,-4.993 3.327,-10.362 8.773,-10.362 5.446,0 8.773,5.369 8.773,10.362 0,5.142 -3.327,10.437 -8.773,10.437 C 3.327,10.437 0,5.142 0,0 m 28.286,0 c 0,-11.498 -7.864,-19.743 -19.513,-19.743 -11.649,0 -19.515,8.245 -19.515,19.743 0,11.571 7.942,19.816 19.515,19.816 11.571,0 19.513,-8.245 19.513,-19.816" /></g><g
           transform="translate(281.3072,38.3477)"
           id="g76"><path
             id="path78"
             style="fill:#23396e;fill-opacity:1;fill-rule:nonzero;stroke:none"
             d="m 0,0 v -20.119 c 0,-4.235 0.681,-9.303 6.05,-9.303 5.371,0 6.052,5.068 6.052,9.303 V 0 h 10.59 v -21.858 c 0,-10.816 -5.599,-16.49 -16.642,-16.49 -11.043,0 -16.64,5.674 -16.64,16.49 V 0 Z" /></g><g
           transform="translate(322.002,34.4905)"
           id="g80"><path
             id="path82"
             style="fill:#23396e;fill-opacity:1;fill-rule:nonzero;stroke:none"
             d="m 0,0 h 0.15 c 2.118,3.254 5.294,5.068 9.229,5.068 1.512,0 3.024,-0.378 4.385,-0.908 L 12.48,-5.672 C 11.193,-4.766 9.681,-4.31 8.092,-4.31 0.756,-4.31 0,-10.815 0,-16.564 V -33.279 H -10.59 V 3.857 l 10.59,0 z" /></g><g
           transform="translate(324.9751,126.9223)"
           id="g84"><path
             id="path86"
             style="fill:#75d1cf;fill-opacity:1;fill-rule:nonzero;stroke:none"
             d="M 0,0 C 0.041,0.166 0.06,0.33 0.058,0.49 0.06,0.33 0.041,0.166 0,0" /></g><g
           transform="translate(324.9751,126.9223)"
           id="g88"><path
             id="path90"
             style="fill:#75d1cf;fill-opacity:1;fill-rule:nonzero;stroke:none"
             d="M 0,0 C -0.021,-0.086 -0.049,-0.173 -0.082,-0.259 -0.049,-0.173 -0.021,-0.086 0,0" /></g><g
           transform="translate(349.3431,99.9213)"
           id="g92"><path
             id="path94"
             style="fill:#75d1cf;fill-opacity:1;fill-rule:nonzero;stroke:none"
             d="M 0,0 C 0.067,0.113 0.145,0.22 0.228,0.325 0.145,0.22 0.067,0.113 0,0" /></g><g
           transform="translate(358.2483,86.3335)"
           id="g96"><path
             id="path98"
             style="fill:#75d1cf;fill-opacity:1;fill-rule:nonzero;stroke:none"
             d="M 0,0 C -0.547,0.026 -0.996,0.195 -1.326,0.545 -0.996,0.195 -0.547,0.025 0,0 0.898,-0.088 1.81,0.206 2.48,0.782 1.81,0.206 0.898,-0.088 0,0" /></g><g
           transform="translate(324.9196,128.0213)"
           id="g100"><path
             id="path102"
             style="fill:#75d1cf;fill-opacity:1;fill-rule:nonzero;stroke:none"
             d="M 0,0 C 0.067,-0.175 0.105,-0.362 0.112,-0.556 0.105,-0.362 0.067,-0.175 0,0" /></g><g
           transform="translate(324.8732,128.1309)"
           id="g104"><path
             id="path106"
             style="fill:#75d1cf;fill-opacity:1;fill-rule:nonzero;stroke:none"
             d="M 0,0 C 0.009,-0.02 0.017,-0.041 0.026,-0.062 0.017,-0.041 0.009,-0.02 0,0" /></g><g
           transform="translate(278.5763,64.1964)"
           id="g108"><path
             id="path110"
             style="fill:#23396e;fill-opacity:1;fill-rule:nonzero;stroke:none"
             d="M 0,0 C 1.253,0.137 2.29,0.422 2.947,1.588 3.182,2.005 3.542,2.349 3.825,2.741 4.766,4.044 5.697,5.353 6.628,6.652 7.569,4.775 8.516,2.934 9.409,1.068 9.623,0.622 9.893,0.48 10.344,0.487 12.425,0.516 14.508,0.529 16.59,0.556 16.988,0.561 17.386,0.604 17.784,0.63 15.897,1.391 14.151,2.261 12.606,3.51 8.99,6.432 6.678,10.287 4.874,14.474 4.004,16.495 3.32,18.596 2.519,20.748 -1.676,12.505 -7.675,5.585 -13.592,-1.567 c 0.317,-0.009 0.49,-0.036 0.657,-0.016 C -8.624,-1.05 -4.317,-0.474 0,0" /></g><g
           transform="translate(314.0633,109.0675)"
           id="g112"><path
             id="path114"
             style="fill:#75d1cf;fill-opacity:1;fill-rule:nonzero;stroke:none"
             d="m 0,0 c -1.132,-1.575 -0.496,-2.974 1.492,-3.182 0.897,-0.24 1.673,0.175 2.366,0.775 0.844,0.73 1.179,1.824 0.853,2.607 C 4.377,1 3.546,1.48 2.523,1.397 1.483,1.312 0.612,0.851 0,0" /></g><g
           transform="translate(308.1336,116.43)"
           id="g116"><path
             id="path118"
             style="fill:#75d1cf;fill-opacity:1;fill-rule:nonzero;stroke:none"
             d="M 0,0 C 1.274,0.001 2.278,0.537 2.974,1.616 3.867,3.001 3.121,4.513 1.21,4.686 0.135,4.684 -0.897,4.131 -1.631,3.008 -2.045,2.375 -2.178,1.729 -1.789,1.037 -1.397,0.339 -0.781,-0.001 0,0" /></g><g
           transform="translate(310.2731,82.8329)"
           id="g120"><path
             id="path122"
             style="fill:#75d1cf;fill-opacity:1;fill-rule:nonzero;stroke:none"
             d="M 0,0 C 1.42,-0.13 2.82,0.7 3.375,1.966 3.767,2.859 3.465,3.762 2.611,4.257 1.344,4.99 -0.367,4.503 -1.372,3.155 -1.827,2.544 -2.024,1.887 -1.728,1.185 -1.409,0.428 -0.793,0.017 0,0" /></g><g
           transform="translate(363.6407,107.4537)"
           id="g124"><path
             id="path126"
             style="fill:#75d1cf;fill-opacity:1;fill-rule:nonzero;stroke:none"
             d="M 0,0 C -0.951,-1.403 -0.207,-2.968 1.476,-3.105 2.793,-3.212 4.262,-2.311 4.765,-1.087 5.219,0.018 4.7,1.112 3.55,1.478 2.362,1.856 0.825,1.216 0,0" /></g><g
           transform="translate(348.9603,125.9118)"
           id="g128"><path
             id="path130"
             style="fill:#75d1cf;fill-opacity:1;fill-rule:nonzero;stroke:none"
             d="M 0,0 C 1.641,-0.944 4.337,0.458 4.508,2.497 4.492,3.124 4.233,3.743 3.463,4.096 1.813,4.853 -0.517,3.67 -0.85,1.888 -0.978,1.207 -0.586,0.337 0,0" /></g><g
           transform="translate(330.3538,118.6517)"
           id="g132"><path
             id="path134"
             style="fill:#75d1cf;fill-opacity:1;fill-rule:nonzero;stroke:none"
             d="m 0,0 c -1.355,-0.062 -2.42,-0.666 -3.046,-1.922 -0.536,-1.077 -0.084,-2.222 1.042,-2.647 1.607,-0.606 3.861,0.79 4.029,2.496 C 2.141,-0.89 1.259,0.058 0,0" /></g><g
           transform="translate(356.0809,110.7788)"
           id="g136"><path
             id="path138"
             style="fill:#75d1cf;fill-opacity:1;fill-rule:nonzero;stroke:none"
             d="m 0,0 c -1.255,0.014 -2.298,-0.493 -2.986,-1.598 -0.899,-1.446 -0.182,-2.898 1.49,-3.02 1.115,-0.121 2.032,0.306 2.745,1.108 0.567,0.639 0.984,1.384 0.604,2.297 C 1.512,-0.394 0.819,-0.009 0,0" /></g><g
           transform="translate(346.2496,87.9153)"
           id="g140"><path
             id="path142"
             style="fill:#75d1cf;fill-opacity:1;fill-rule:nonzero;stroke:none"
             d="M 0,0 C 1.27,-1.004 3.371,-0.425 4.346,1.187 5.173,2.553 4.406,4.044 2.809,4.177 1.4,4.294 -0.163,3.281 -0.592,1.943 -0.838,1.174 -0.637,0.504 0,0" /></g><g
           transform="translate(349.2151,121.3405)"
           id="g144"><path
             id="path146"
             style="fill:#75d1cf;fill-opacity:1;fill-rule:nonzero;stroke:none"
             d="m 0,0 c -1.566,0.557 -3.798,-0.856 -3.964,-2.508 -0.121,-1.21 0.809,-2.168 2.104,-2.084 1.291,0.083 2.315,0.667 2.94,1.844 C 1.683,-1.612 1.216,-0.433 0,0" /></g><g
           transform="translate(352.4506,101.5779)"
           id="g148"><path
             id="path150"
             style="fill:#75d1cf;fill-opacity:1;fill-rule:nonzero;stroke:none"
             d="M 0,0 C 0.697,-0.042 1.253,-0.335 1.603,-0.885 1.253,-0.335 0.697,-0.042 0.001,0.001 -1.051,0.089 -2.205,-0.48 -2.879,-1.331 -2.205,-0.48 -1.051,0.089 0,0" /></g><g
           transform="translate(353.9199,98.453)"
           id="g152"><path
             id="path154"
             style="fill:#75d1cf;fill-opacity:1;fill-rule:nonzero;stroke:none"
             d="M 0,0 C 0.432,0.618 0.592,1.298 0.271,1.989 0.229,2.078 0.184,2.162 0.134,2.24 -0.216,2.79 -0.773,3.083 -1.469,3.125 -2.52,3.214 -3.674,2.644 -4.348,1.794 -4.431,1.689 -4.509,1.581 -4.577,1.468 -4.665,1.322 -4.738,1.169 -4.795,1.011 -5.177,-0.049 -4.67,-1.075 -3.583,-1.44 -2.402,-1.836 -0.845,-1.209 0,0" /></g><g
           transform="translate(359.465,111.644)"
           id="g156"><path
             id="path158"
             style="fill:#75d1cf;fill-opacity:1;fill-rule:nonzero;stroke:none"
             d="M 0,0 C -0.083,-0.855 0.35,-1.444 1.113,-1.794 2.71,-2.525 5.131,-1.119 5.508,0.76 5.206,1.256 4.996,1.855 4.582,2.228 3.724,3.003 2.709,2.79 1.772,2.338 0.802,1.871 0.11,1.126 0,0" /></g><g
           transform="translate(325.5166,75.6885)"
           id="g160"><path
             id="path162"
             style="fill:#75d1cf;fill-opacity:1;fill-rule:nonzero;stroke:none"
             d="M 0,0 C 1.222,0.038 2.233,0.533 2.902,1.622 3.775,3.044 3.035,4.543 1.384,4.667 0.069,4.767 -1.442,3.836 -1.931,2.626 -2.458,1.324 -1.481,-0.046 0,0" /></g><g
           transform="translate(322.1541,101.9785)"
           id="g164"><path
             id="path166"
             style="fill:#75d1cf;fill-opacity:1;fill-rule:nonzero;stroke:none"
             d="M 0,0 C 0.669,1.032 0.523,2.272 -0.33,2.81 -2.04,3.888 -4.686,2.562 -4.875,0.533 -4.974,-0.532 -4.524,-1.149 -3.472,-1.388 -2.232,-1.67 -0.68,-1.049 0,0" /></g><g
           transform="translate(341.6816,124.8546)"
           id="g168"><path
             id="path170"
             style="fill:#75d1cf;fill-opacity:1;fill-rule:nonzero;stroke:none"
             d="m 0,0 c -0.591,-1.215 0.105,-2.555 1.465,-2.725 1.421,-0.179 2.529,0.42 3.315,1.58 C 5.675,0.177 4.901,1.724 3.304,1.866 1.954,1.986 0.592,1.217 0,0" /></g><g
           transform="translate(327.9976,108.7949)"
           id="g172"><path
             id="path174"
             style="fill:#75d1cf;fill-opacity:1;fill-rule:nonzero;stroke:none"
             d="m 0,0 c -1.26,0.627 -3.094,-0.046 -3.878,-1.422 -0.847,-1.488 -0.193,-2.792 1.482,-2.95 1.343,-0.126 2.569,0.528 3.22,1.718 C 1.398,-1.605 1.064,-0.529 0,0" /></g><g
           transform="translate(354.3439,91.6072)"
           id="g176"><path
             id="path178"
             style="fill:#75d1cf;fill-opacity:1;fill-rule:nonzero;stroke:none"
             d="M 0,0 C 1.498,-0.314 3.154,1.008 3.594,2.17 3.946,3.101 3.463,4.092 2.518,4.494 0.906,5.181 -1.401,3.816 -1.583,2.068 -1.694,1.005 -1.059,0.222 0,0" /></g><g
           transform="translate(318.0592,86.5234)"
           id="g180"><path
             id="path182"
             style="fill:#75d1cf;fill-opacity:1;fill-rule:nonzero;stroke:none"
             d="M 0,0 C 1.396,-0.121 2.77,0.704 3.316,1.992 3.704,2.906 3.41,3.784 2.551,4.28 1.263,5.024 -0.499,4.496 -1.456,3.077 -2.433,1.631 -1.732,0.151 0,0" /></g><g
           transform="translate(339.8852,83.2075)"
           id="g184"><path
             id="path186"
             style="fill:#75d1cf;fill-opacity:1;fill-rule:nonzero;stroke:none"
             d="M 0,0 C 1.612,-0.554 3.759,0.814 3.938,2.509 4.058,3.649 3.297,4.555 2.096,4.587 0.826,4.622 -0.23,4.089 -0.925,3.026 -1.753,1.759 -1.32,0.454 0,0" /></g><g
           transform="translate(338.6898,122.4559)"
           id="g188"><path
             id="path190"
             style="fill:#75d1cf;fill-opacity:1;fill-rule:nonzero;stroke:none"
             d="m 0,0 c -1.277,0.805 -3.18,0.221 -4.122,-1.265 -0.875,-1.38 -0.163,-2.852 1.455,-3.008 1.43,-0.138 2.819,0.696 3.372,2.026 C 1.075,-1.359 0.808,-0.509 0,0" /></g><g
           transform="translate(328.354,128.8268)"
           id="g192"><path
             id="path194"
             style="fill:#75d1cf;fill-opacity:1;fill-rule:nonzero;stroke:none"
             d="M 0,0 C 1.316,-0.263 2.774,0.439 3.489,1.681 4.248,2.997 3.505,4.432 1.982,4.593 0.69,4.73 -0.636,4.005 -1.307,2.797 -1.972,1.6 -1.351,0.27 0,0" /></g><g
           transform="translate(337.274,81.3796)"
           id="g196"><path
             id="path198"
             style="fill:#75d1cf;fill-opacity:1;fill-rule:nonzero;stroke:none"
             d="M 0,0 C 0.345,0.992 -0.109,1.985 -1.091,2.39 -2.703,3.054 -5.017,1.665 -5.192,-0.071 -5.293,-1.072 -4.654,-1.905 -3.637,-2.096 -2.196,-2.366 -0.478,-1.376 0,0" /></g><g
           transform="translate(330.5125,125.4559)"
           id="g200"><path
             id="path202"
             style="fill:#75d1cf;fill-opacity:1;fill-rule:nonzero;stroke:none"
             d="M 0,0 C -0.068,-1.07 0.734,-1.928 1.881,-2.013 3.468,-2.132 5.232,-0.756 5.319,0.668 5.384,1.733 4.581,2.587 3.429,2.679 1.834,2.807 0.092,1.445 0,0" /></g><g
           transform="translate(298.6485,99.4902)"
           id="g204"><path
             id="path206"
             style="fill:#75d1cf;fill-opacity:1;fill-rule:nonzero;stroke:none"
             d="M 0,0 C 1.271,-0.711 3,-0.218 3.953,1.126 4.978,2.573 4.296,4.101 2.552,4.266 1.156,4.398 -0.197,3.613 -0.781,2.332 -1.202,1.41 -0.898,0.502 0,0" /></g><g
           transform="translate(320.9966,119.1211)"
           id="g208"><path
             id="path210"
             style="fill:#75d1cf;fill-opacity:1;fill-rule:nonzero;stroke:none"
             d="m 0,0 c -1.285,1.122 -3.61,0.364 -4.447,-1.386 -0.514,-1.073 -0.051,-2.212 1.074,-2.643 1.562,-0.599 3.887,0.832 4.241,2.605 C 0.585,-0.942 0.399,-0.349 0,0" /></g><g
           transform="translate(303.8318,108.0736)"
           id="g212"><path
             id="path214"
             style="fill:#75d1cf;fill-opacity:1;fill-rule:nonzero;stroke:none"
             d="M 0,0 C 1.117,0.051 2.104,0.509 2.63,1.477 2.943,2.052 3.06,2.879 2.919,3.517 2.765,4.213 2.06,4.585 1.664,4.6 0.022,4.72 -0.986,4.204 -1.732,3.238 -2.247,2.572 -2.473,1.777 -2.003,0.969 -1.562,0.212 -0.829,-0.038 0,0" /></g><g
           transform="translate(306.3557,88.3205)"
           id="g216"><path
             id="path218"
             style="fill:#75d1cf;fill-opacity:1;fill-rule:nonzero;stroke:none"
             d="M 0,0 C 1.276,-0.325 2.974,0.463 3.562,1.654 4.291,3.13 3.595,4.389 1.971,4.53 0.738,4.636 -0.475,4.039 -1.124,3.007 -1.897,1.778 -1.362,0.347 0,0" /></g><g
           transform="translate(347.4184,79.8053)"
           id="g220"><path
             id="path222"
             style="fill:#75d1cf;fill-opacity:1;fill-rule:nonzero;stroke:none"
             d="M 0,0 C 0.501,1.197 -0.165,2.435 -1.453,2.614 -2.87,2.811 -3.983,2.252 -4.779,1.082 -5.719,-0.3 -4.986,-1.816 -3.318,-1.973 -1.966,-2.101 -0.52,-1.241 0,0" /></g><g
           transform="translate(326.2629,97.7708)"
           id="g224"><path
             id="path226"
             style="fill:#75d1cf;fill-opacity:1;fill-rule:nonzero;stroke:none"
             d="M 0,0 C 0.105,0.956 -0.393,1.681 -1.324,1.927 -2.858,2.333 -4.501,1.553 -5.148,0.112 -5.513,-0.699 -5.241,-1.763 -4.556,-2.211 -2.941,-3.265 -0.214,-1.942 0,0" /></g><g
           transform="translate(301.6284,96.6885)"
           id="g228"><path
             id="path230"
             style="fill:#75d1cf;fill-opacity:1;fill-rule:nonzero;stroke:none"
             d="m 0,0 c -0.815,-1.466 -0.111,-2.799 1.553,-2.942 1.262,-0.109 2.478,0.51 3.139,1.598 0.742,1.22 0.121,2.673 -1.257,2.942 C 2.13,1.853 0.646,1.162 0,0" /></g><g
           transform="translate(338.9469,98.4319)"
           id="g232"><path
             id="path234"
             style="fill:#75d1cf;fill-opacity:1;fill-rule:nonzero;stroke:none"
             d="M 0,0 C 1.633,-1.051 4.356,0.264 4.568,2.205 4.67,3.136 4.144,3.886 3.221,4.127 1.706,4.521 0.12,3.788 -0.564,2.378 -0.987,1.507 -0.742,0.478 0,0" /></g><g
           transform="translate(329.6653,84.676)"
           id="g236"><path
             id="path238"
             style="fill:#75d1cf;fill-opacity:1;fill-rule:nonzero;stroke:none"
             d="M 0,0 C 1.176,-0.416 2.795,0.145 3.556,1.432 3.874,1.97 3.988,2.791 3.843,3.4 3.669,4.128 2.947,4.505 1.883,4.58 0.868,4.668 -0.463,3.894 -1.078,2.679 -1.644,1.563 -1.183,0.418 0,0" /></g><g
           transform="translate(331.2618,111.8638)"
           id="g240"><path
             id="path242"
             style="fill:#75d1cf;fill-opacity:1;fill-rule:nonzero;stroke:none"
             d="m 0,0 c -0.462,-0.644 -0.635,-1.333 -0.326,-2.049 0.311,-0.722 0.911,-1.121 1.557,-1.109 1.419,-0.126 2.388,0.424 3.113,1.355 0.51,0.655 0.769,1.443 0.297,2.266 C 4.184,1.259 3.436,1.526 2.577,1.455 1.509,1.368 0.641,0.894 0,0" /></g><g
           transform="translate(324.8993,128.0694)"
           id="g244"><path
             id="path246"
             style="fill:#75d1cf;fill-opacity:1;fill-rule:nonzero;stroke:none"
             d="M 0,0 C 0.007,-0.016 0.014,-0.032 0.02,-0.048 0.014,-0.032 0.007,-0.016 0,0" /></g><g
           transform="translate(323.1882,129.2097)"
           id="g248"><path
             id="path250"
             style="fill:#75d1cf;fill-opacity:1;fill-rule:nonzero;stroke:none"
             d="M 0,0 C 0.825,-0.079 1.417,-0.503 1.685,-1.079 1.417,-0.503 0.825,-0.078 0,0.001 -1.064,0.138 -1.914,-0.253 -2.621,-0.936 -1.914,-0.253 -1.064,0.138 0,0" /></g><g
           transform="translate(325.0318,127.4655)"
           id="g252"><path
             id="path254"
             style="fill:#75d1cf;fill-opacity:1;fill-rule:nonzero;stroke:none"
             d="M 0,0 C 0.001,-0.018 0.001,-0.035 0.002,-0.053 0.001,-0.035 0.001,-0.018 0,0" /></g><g
           transform="translate(322.0019,124.601)"
           id="g256"><path
             id="path258"
             style="fill:#75d1cf;fill-opacity:1;fill-rule:nonzero;stroke:none"
             d="m 0,0 c 1.096,0.111 1.982,0.621 2.616,1.545 0.117,0.171 0.208,0.344 0.275,0.517 0.034,0.087 0.061,0.173 0.082,0.259 0.042,0.166 0.06,0.33 0.059,0.49 C 3.031,2.829 3.031,2.847 3.03,2.864 3.022,3.058 2.985,3.245 2.918,3.42 2.912,3.437 2.904,3.452 2.897,3.468 2.889,3.489 2.881,3.51 2.871,3.53 2.603,4.105 2.012,4.53 1.186,4.609 0.122,4.747 -0.728,4.356 -1.435,3.673 -1.536,3.575 -1.634,3.472 -1.729,3.363 -2.376,2.623 -2.502,1.683 -2.077,0.965 -1.613,0.182 -0.862,-0.087 0,0" /></g><g
           transform="translate(314.5882,91.8796)"
           id="g260"><path
             id="path262"
             style="fill:#75d1cf;fill-opacity:1;fill-rule:nonzero;stroke:none"
             d="M 0,0 C 1.075,-0.023 2.127,0.429 2.846,1.496 3.668,2.717 3.315,4.017 2.072,4.514 0.643,5.085 -1.5,4.006 -1.908,2.511 -2.284,1.133 -1.612,0.153 0,0" /></g><g
           transform="translate(336.8975,88.4281)"
           id="g264"><path
             id="path266"
             style="fill:#75d1cf;fill-opacity:1;fill-rule:nonzero;stroke:none"
             d="M 0,0 C 1.04,-0.049 2.036,0.435 2.76,1.389 3.266,2.055 3.524,2.824 3.065,3.656 2.635,4.437 1.924,4.69 1.097,4.66 -0.091,4.617 -1.005,4.054 -1.666,3.077 -2.585,1.718 -1.822,0.144 0,0" /></g><g
           transform="translate(314.1969,77.3514)"
           id="g268"><path
             id="path270"
             style="fill:#75d1cf;fill-opacity:1;fill-rule:nonzero;stroke:none"
             d="M 0,0 C 1.088,0.063 2.013,0.492 2.685,1.412 3.154,2.053 3.324,2.744 3.022,3.46 2.716,4.185 2.11,4.579 1.372,4.571 0.188,4.683 -0.985,4.211 -1.627,3.336 -2.12,2.665 -2.448,1.925 -2.009,1.085 -1.587,0.277 -0.859,-0.05 0,0" /></g><g
           transform="translate(354.8595,76.8501)"
           id="g272"><path
             id="path274"
             style="fill:#75d1cf;fill-opacity:1;fill-rule:nonzero;stroke:none"
             d="M 0,0 C 1.435,-0.13 2.81,0.716 3.342,2.055 3.695,2.943 3.403,3.806 2.589,4.28 1.282,5.041 -0.526,4.481 -1.469,3.023 -2.391,1.595 -1.691,0.153 0,0" /></g><g
           transform="translate(337.6242,73.9958)"
           id="g276"><path
             id="path278"
             style="fill:#75d1cf;fill-opacity:1;fill-rule:nonzero;stroke:none"
             d="M 0,0 C 1.342,-0.118 2.588,0.57 3.189,1.76 3.767,2.906 3.277,4.196 2.14,4.517 0.769,4.905 -0.887,4.167 -1.553,2.871 -2.309,1.4 -1.629,0.143 0,0" /></g><g
           transform="translate(317.8114,71.875)"
           id="g280"><path
             id="path282"
             style="fill:#75d1cf;fill-opacity:1;fill-rule:nonzero;stroke:none"
             d="M 0,0 C 0.946,-0.073 1.986,0.498 2.722,1.547 3.564,2.747 3.083,4.12 1.757,4.542 0.381,4.98 -1.467,4.104 -2.006,2.758 -2.572,1.343 -1.886,0.19 0,0" /></g><g
           transform="translate(326.6973,89.8709)"
           id="g284"><path
             id="path286"
             style="fill:#75d1cf;fill-opacity:1;fill-rule:nonzero;stroke:none"
             d="M 0,0 C 1.027,-0.017 2.061,0.415 2.787,1.433 3.257,2.093 3.508,2.831 3.088,3.629 2.691,4.383 2.016,4.619 1.208,4.648 0.054,4.689 -1.342,3.877 -1.828,2.842 -2.466,1.484 -1.711,0.164 0,0" /></g><g
           transform="translate(351.916,122.3019)"
           id="g288"><path
             id="path290"
             style="fill:#75d1cf;fill-opacity:1;fill-rule:nonzero;stroke:none"
             d="M 0,0 C -0.084,-0.822 0.259,-1.396 1.003,-1.749 2.611,-2.512 4.93,-1.346 5.261,0.396 5.412,1.19 5.078,1.99 4.445,2.351 2.776,3.305 0.174,1.928 0,0" /></g><g
           transform="translate(368.9771,91.8834)"
           id="g292"><path
             id="path294"
             style="fill:#75d1cf;fill-opacity:1;fill-rule:nonzero;stroke:none"
             d="M 0,0 C 0.391,0.686 0.458,1.392 -0.016,2.059 -0.488,2.723 -1.195,3.135 -1.971,2.92 -3.116,2.603 -4.27,2.255 -4.775,0.904 -5.274,-0.431 -4.664,-1.607 -3.233,-1.759 -2.039,-1.887 -0.646,-1.133 0,0" /></g><g
           transform="translate(327.5285,123.8186)"
           id="g296"><path
             id="path298"
             style="fill:#75d1cf;fill-opacity:1;fill-rule:nonzero;stroke:none"
             d="m 0,0 c -1.61,0.66 -3.914,-0.736 -4.092,-2.479 -0.104,-1.02 0.449,-1.773 1.462,-1.99 1.431,-0.306 3.004,0.525 3.64,1.924 C 1.469,-1.533 1.028,-0.422 0,0" /></g><g
           transform="translate(313.6942,115.7252)"
           id="g300"><path
             id="path302"
             style="fill:#75d1cf;fill-opacity:1;fill-rule:nonzero;stroke:none"
             d="m 0,0 c -1.434,0.389 -3.327,-0.704 -3.702,-2.137 -0.36,-1.372 0.339,-2.366 1.961,-2.497 1.09,0.014 2.159,0.525 2.846,1.631 C 1.913,-1.702 1.391,-0.377 0,0" /></g><g
           transform="translate(359.706,105.4037)"
           id="g304"><path
             id="path306"
             style="fill:#75d1cf;fill-opacity:1;fill-rule:nonzero;stroke:none"
             d="m 0,0 c -1.232,0.108 -2.209,-0.514 -2.881,-1.568 -0.578,-0.909 -0.632,-2.322 0.898,-2.914 1.255,-0.486 3.074,0.285 3.749,1.634 C 2.525,-1.331 1.786,-0.076 0,0" /></g><g
           transform="translate(361.4655,81.1255)"
           id="g308"><path
             id="path310"
             style="fill:#75d1cf;fill-opacity:1;fill-rule:nonzero;stroke:none"
             d="M 0,0 C 1.281,-0.334 2.69,0.161 3.451,1.211 4.235,2.293 4.128,3.549 3.2,4.149 1.573,5.2 -1.137,3.862 -1.329,1.913 -1.426,0.925 -0.957,0.249 0,0" /></g><g
           transform="translate(340.2603,68.9884)"
           id="g312"><path
             id="path314"
             style="fill:#75d1cf;fill-opacity:1;fill-rule:nonzero;stroke:none"
             d="M 0,0 C 1.609,-1.025 4.395,0.397 4.536,2.42 4.523,3.099 4.253,3.717 3.482,4.056 1.936,4.736 -0.248,3.746 -0.728,2.134 -0.983,1.276 -0.7,0.446 0,0" /></g><g
           transform="translate(361.0686,87.4567)"
           id="g316"><path
             id="path318"
             style="fill:#75d1cf;fill-opacity:1;fill-rule:nonzero;stroke:none"
             d="M 0,0 C -0.104,-0.123 -0.218,-0.237 -0.34,-0.342 -0.218,-0.237 -0.104,-0.123 0,0" /></g><g
           transform="translate(358.2483,86.3335)"
           id="g320"><path
             id="path322"
             style="fill:#75d1cf;fill-opacity:1;fill-rule:nonzero;stroke:none"
             d="M 0,0 C 0.898,-0.088 1.81,0.206 2.48,0.782 2.602,0.886 2.716,1 2.82,1.123 2.977,1.307 3.112,1.511 3.221,1.733 3.533,2.368 3.72,3.108 3.182,3.716 2.588,4.388 1.823,4.854 0.885,4.553 0.052,4.286 -0.755,3.976 -1.301,3.156 -1.739,2.498 -2.021,1.907 -1.7,1.138 -1.602,0.901 -1.476,0.704 -1.326,0.545 -0.996,0.195 -0.547,0.026 0,0" /></g><g
           transform="translate(335.993,95.1702)"
           id="g324"><path
             id="path326"
             style="fill:#75d1cf;fill-opacity:1;fill-rule:nonzero;stroke:none"
             d="M 0,0 C 0.482,0.667 0.624,1.391 0.322,2.132 0.014,2.887 -0.65,3.175 -1.399,3.165 -2.676,3.328 -3.605,2.748 -4.32,1.855 -4.862,1.178 -5.113,0.347 -4.599,-0.479 -4.129,-1.235 -3.382,-1.535 -2.514,-1.432 -1.488,-1.309 -0.627,-0.867 0,0" /></g><g
           transform="translate(314.1139,99.3112)"
           id="g328"><path
             id="path330"
             style="fill:#75d1cf;fill-opacity:1;fill-rule:nonzero;stroke:none"
             d="M 0,0 C 0.316,0.856 0.06,1.796 -0.61,2.24 -2.228,3.312 -5.068,1.93 -5.225,-0.006 -5.29,-0.815 -4.883,-1.483 -4.136,-1.793 -2.62,-2.421 -0.564,-1.53 0,0" /></g><g
           transform="translate(352.7236,116.0634)"
           id="g332"><path
             id="path334"
             style="fill:#75d1cf;fill-opacity:1;fill-rule:nonzero;stroke:none"
             d="m 0,0 c -1.345,0.279 -2.983,-0.587 -3.514,-1.859 -0.612,-1.464 0.075,-2.608 1.642,-2.735 1.209,-0.097 2.435,0.528 3.075,1.568 C 1.994,-1.739 1.42,-0.295 0,0" /></g><g
           transform="translate(308.3144,107.3076)"
           id="g336"><path
             id="path338"
             style="fill:#75d1cf;fill-opacity:1;fill-rule:nonzero;stroke:none"
             d="m 0,0 c -1.043,-0.077 -1.888,-0.548 -2.545,-1.374 -0.516,-0.649 -0.663,-1.387 -0.37,-2.12 0.289,-0.724 0.918,-1.109 1.516,-1.116 1.449,-0.114 2.425,0.411 3.156,1.344 0.516,0.659 0.772,1.447 0.302,2.261 C 1.607,-0.222 0.865,0.064 0,0" /></g><g
           transform="translate(320.5623,112.9367)"
           id="g340"><path
             id="path342"
             style="fill:#75d1cf;fill-opacity:1;fill-rule:nonzero;stroke:none"
             d="m 0,0 c -0.506,-0.648 -0.643,-1.405 -0.361,-2.131 0.296,-0.76 0.971,-1.128 1.753,-1.126 1.149,-0.075 2.445,0.576 3.009,1.507 0.425,0.703 0.641,1.451 0.16,2.209 C 4.119,1.156 3.431,1.44 2.621,1.394 1.539,1.332 0.668,0.855 0,0" /></g><g
           transform="translate(328.613,70.387)"
           id="g344"><path
             id="path346"
             style="fill:#75d1cf;fill-opacity:1;fill-rule:nonzero;stroke:none"
             d="M 0,0 C 1.72,-0.173 2.724,0.438 3.449,1.498 4.364,2.836 3.554,4.434 1.937,4.569 0.702,4.672 -0.626,3.934 -1.199,2.827 -1.959,1.357 -1.276,0.112 0,0" /></g><g
           transform="translate(327.4884,101.0468)"
           id="g348"><path
             id="path350"
             style="fill:#75d1cf;fill-opacity:1;fill-rule:nonzero;stroke:none"
             d="M 0,0 C -0.075,-0.918 0.289,-1.486 1.151,-1.796 2.759,-2.374 4.761,-1.359 5.227,0.271 5.448,1.045 5.117,1.963 4.485,2.333 2.783,3.326 0.161,1.962 0,0" /></g><g
           transform="translate(350.4542,104.2236)"
           id="g352"><path
             id="path354"
             style="fill:#75d1cf;fill-opacity:1;fill-rule:nonzero;stroke:none"
             d="M 0,0 C 0.423,0.945 0.086,1.961 -0.802,2.416 -2.459,3.266 -4.916,1.897 -5.104,-0.1 -5.243,-0.856 -4.818,-1.419 -4.073,-1.794 -2.716,-2.478 -0.714,-1.594 0,0" /></g><g
           transform="translate(341.7887,110.2548)"
           id="g356"><path
             id="path358"
             style="fill:#75d1cf;fill-opacity:1;fill-rule:nonzero;stroke:none"
             d="M 0,0 C -0.391,-0.854 -0.111,-1.933 0.616,-2.375 2.269,-3.379 4.969,-2.021 5.154,-0.094 5.235,0.763 4.737,1.508 3.918,1.754 2.352,2.225 0.675,1.474 0,0" /></g><g
           transform="translate(356.0831,118.1134)"
           id="g360"><path
             id="path362"
             style="fill:#75d1cf;fill-opacity:1;fill-rule:nonzero;stroke:none"
             d="m 0,0 c -0.411,-0.67 -0.592,-1.425 -0.195,-2.149 0.377,-0.686 1.051,-0.985 1.83,-0.983 1.256,0.005 2.304,0.542 2.909,1.603 C 5.434,0.03 4.637,1.44 3.026,1.488 1.854,1.589 0.615,1.003 0,0" /></g><g
           transform="translate(314.0505,120.3755)"
           id="g364"><path
             id="path366"
             style="fill:#75d1cf;fill-opacity:1;fill-rule:nonzero;stroke:none"
             d="M 0,0 C 1.387,-0.381 3.111,0.466 3.677,1.806 4.29,3.256 3.601,4.414 1.588,4.591 0.677,4.633 -0.363,4.037 -1.063,2.91 -1.801,1.721 -1.266,0.348 0,0" /></g><g
           transform="translate(338.6918,107.7987)"
           id="g368"><path
             id="path370"
             style="fill:#75d1cf;fill-opacity:1;fill-rule:nonzero;stroke:none"
             d="m 0,0 c -1.378,0.64 -3.22,-0.143 -3.963,-1.685 -0.47,-0.975 -0.211,-1.978 0.636,-2.461 1.642,-0.939 4.204,0.4 4.392,2.295 C 1.161,-0.884 0.891,-0.414 0,0" /></g><g
           transform="translate(346.7338,94.1653)"
           id="g372"><path
             id="path374"
             style="fill:#75d1cf;fill-opacity:1;fill-rule:nonzero;stroke:none"
             d="M 0,0 C 0.483,0.652 0.61,1.413 0.318,2.142 0.038,2.839 -0.585,3.185 -1.291,3.176 -2.549,3.293 -3.794,2.725 -4.409,1.74 -4.84,1.049 -5.053,0.28 -4.606,-0.472 c 0.457,-0.767 1.223,-1.035 2.084,-0.952 1.04,0.1 1.895,0.579 2.522,1.424" /></g><g
           transform="translate(339.329,127.4514)"
           id="g376"><path
             id="path378"
             style="fill:#75d1cf;fill-opacity:1;fill-rule:nonzero;stroke:none"
             d="M 0,0 C 1.355,-0.282 3.044,0.656 3.528,1.959 3.561,2.048 3.589,2.136 3.613,2.221 3.757,2.736 3.738,3.191 3.573,3.56 3.326,4.114 2.75,4.475 1.9,4.556 0.633,4.72 -0.323,4.201 -1.046,3.266 -1.095,3.204 -1.142,3.14 -1.188,3.074 -2.056,1.836 -1.442,0.3 0,0" /></g><g
           transform="translate(347.8651,72.5533)"
           id="g380"><path
             id="path382"
             style="fill:#75d1cf;fill-opacity:1;fill-rule:nonzero;stroke:none"
             d="M 0,0 C 0.989,-0.081 1.886,0.24 2.566,0.924 3.24,1.601 3.553,2.419 3.31,3.349 3.124,4.065 2.512,4.408 1.831,4.568 0.572,4.864 -1.137,3.965 -1.647,2.769 -2.293,1.252 -1.627,0.133 0,0" /></g><g
           transform="translate(324.7878,82.6504)"
           id="g384"><path
             id="path386"
             style="fill:#75d1cf;fill-opacity:1;fill-rule:nonzero;stroke:none"
             d="M 0,0 C 0.728,1.166 0.297,2.604 -0.875,2.919 -2.254,3.289 -3.618,2.848 -4.463,1.709 -4.953,1.049 -5.237,0.236 -4.78,-0.474 -4.438,-1.006 -3.767,-1.326 -3.501,-1.536 -1.971,-1.648 -0.596,-0.955 0,0" /></g><g
           transform="translate(367.4272,102.1533)"
           id="g388"><path
             id="path390"
             style="fill:#75d1cf;fill-opacity:1;fill-rule:nonzero;stroke:none"
             d="m 0,0 c -0.862,-1.488 -0.252,-2.795 1.129,-3.03 1.006,-0.032 1.975,-0.019 2.687,0.722 0.61,0.634 1.212,1.358 1.055,2.316 C 4.706,1.006 3.538,1.702 2.449,1.539 1.414,1.385 0.523,0.903 0,0" /></g><g
           transform="translate(341.0172,117.5121)"
           id="g392"><path
             id="path394"
             style="fill:#75d1cf;fill-opacity:1;fill-rule:nonzero;stroke:none"
             d="m 0,0 c -1.029,-0.112 -1.898,-0.526 -2.557,-1.356 -0.533,-0.671 -0.672,-1.44 -0.401,-2.202 0.271,-0.765 0.967,-1.036 1.751,-1.037 1.261,-0.165 2.204,0.407 2.929,1.344 0.521,0.674 0.665,1.472 0.285,2.28 C 1.729,-0.382 0.745,0.081 0,0" /></g><g
           transform="translate(360.7229,98.7842)"
           id="g396"><path
             id="path398"
             style="fill:#75d1cf;fill-opacity:1;fill-rule:nonzero;stroke:none"
             d="M 0,0 C -0.955,-1.252 -0.602,-2.529 0.856,-3.098 2.04,-3.561 3.939,-2.782 4.484,-1.61 5.143,-0.197 4.422,1.186 2.96,1.313 1.831,1.412 0.691,0.906 0,0" /></g><g
           transform="translate(354.244,83.7178)"
           id="g400"><path
             id="path402"
             style="fill:#75d1cf;fill-opacity:1;fill-rule:nonzero;stroke:none"
             d="M 0,0 C 0.807,1.275 0.301,2.506 -1.116,2.862 -2.229,3.14 -3.842,2.542 -4.491,1.594 -4.945,0.93 -5.105,0.191 -4.761,-0.547 -4.442,-1.233 -3.82,-1.559 -2.898,-1.629 -1.75,-1.63 -0.699,-1.104 0,0" /></g><g
           transform="translate(347.1225,63.2851)"
           id="g404"><path
             id="path406"
             style="fill:#23396e;fill-opacity:1;fill-rule:nonzero;stroke:none"
             d="m 0,0 c 1.785,0.585 3.538,1.229 5.263,1.926 -5.744,-2.26 -14.568,-5.027 -26.325,-6.708 1.153,0.154 2.304,0.321 3.455,0.503 C -11.619,-3.33 -5.764,-1.889 0,0" /></g><g
           transform="translate(288.8888,57.2528)"
           id="g408"><path
             id="path410"
             style="fill:#75d1cf;fill-opacity:1;fill-rule:nonzero;stroke:none"
             d="m 0,0 c 1.68,0.019 3.359,0.02 5.039,0.017 -10e-4,0 -0.003,0 -0.004,0 0,0 -9.935,0.207 -21.513,-0.503 1.653,0.076 3.306,0.145 4.959,0.206 C -7.681,-0.137 -3.84,-0.042 0,0" /></g><g
           transform="translate(387.0502,98.6207)"
           id="g412"><path
             id="path414"
             style="fill:#23396e;fill-opacity:1;fill-rule:nonzero;stroke:none"
             d="m 0,0 c -0.745,11.425 -8.013,19.907 -8.013,19.907 0,0 19.083,-31.812 -18.723,-49.612 0,0 -2.681,-1.64 -7.928,-3.705 -1.726,-0.697 -3.479,-1.341 -5.264,-1.926 -5.764,-1.889 -11.618,-3.33 -17.607,-4.278 -1.151,-0.182 -2.302,-0.35 -3.455,-0.504 -4.543,-0.649 -9.522,-1.137 -14.933,-1.37 -0.189,-0.044 -0.379,-0.084 -0.568,-0.117 -0.137,-0.024 -0.293,0.037 -0.436,0.078 -5.037,-0.186 -10.435,-0.153 -16.195,0.176 -1.68,0.003 -3.36,0.002 -5.039,-0.017 -3.841,-0.042 -7.681,-0.137 -11.519,-0.279 -1.653,-0.062 -3.306,-0.13 -4.959,-0.207 -6.941,-0.426 -14.472,-1.181 -20.808,-2.509 -2.002,-0.42 -3.884,-0.896 -5.591,-1.438 0,0 24.796,2.127 47.963,1.604 3.257,-0.142 6.845,-0.302 10.897,-0.472 10e-4,0 0.002,0 0.003,0 v 0 c 1.66,-0.07 3.392,-0.141 5.214,-0.213 33.055,-1.304 57.65,13.644 57.65,13.644 C -3.225,-20.899 0.616,-9.444 0,0" /></g></g></g></g></svg>